<?xml version="1.0"?>
<svg xmlns="http://www.w3.org/2000/svg" xmlns:xlink="http://www.w3.org/1999/xlink" xmlns:svgjs="http://svgjs.com/svgjs" version="1.1" width="50" height="50" x="0" y="0" viewBox="0 0 74 74" style="enable-background:new 0 0 512 512" xml:space="preserve" class=""><g><g xmlns="http://www.w3.org/2000/svg" id="Icons"><path d="m67.1 65.5h-60a5.006 5.006 0 0 1 -5-5v-38a5.006 5.006 0 0 1 5-5h23.8a2.982 2.982 0 0 0 2.929-2.349l.608-2.735a4.97 4.97 0 0 1 4.876-3.916h15.587a4.97 4.97 0 0 1 4.881 3.916l.608 2.735a2.982 2.982 0 0 0 2.924 2.349h3.787a5.006 5.006 0 0 1 5 5v38a5.006 5.006 0 0 1 -5 5zm-60-46a3 3 0 0 0 -3 3v38a3 3 0 0 0 3 3h60a3 3 0 0 0 3-3v-38a3 3 0 0 0 -3-3h-3.787a4.97 4.97 0 0 1 -4.881-3.916l-.608-2.735a2.982 2.982 0 0 0 -2.924-2.349h-15.587a2.982 2.982 0 0 0 -2.929 2.349l-.608 2.735a4.97 4.97 0 0 1 -4.876 3.916z" fill="#ffffff" data-original="#000000" style="" class=""/><path d="m47.1 60.5a19 19 0 1 1 19-19 19.022 19.022 0 0 1 -19 19zm0-36a17 17 0 1 0 17 17 17.019 17.019 0 0 0 -17-17z" fill="#ffffff" data-original="#000000" style="" class=""/><path d="m62.1 41.5h-2a13.014 13.014 0 0 0 -13-13v-2a15.017 15.017 0 0 1 15 15z" fill="#ffffff" data-original="#000000" style="" class=""/><path d="m47.1 50.5a9 9 0 1 1 9-9 9.01 9.01 0 0 1 -9 9zm0-16a7 7 0 1 0 7 7 7.008 7.008 0 0 0 -7-7z" fill="#ffffff" data-original="#000000" style="" class=""/><path d="m19.104 18.5h2v46h-2z" fill="#ffffff" data-original="#000000" style="" class=""/><path d="m19.1 19.5h-8a1 1 0 0 1 -1-1v-4a1 1 0 0 1 1-1h8a1 1 0 0 1 1 1v4a1 1 0 0 1 -1 1zm-7-2h6v-2h-6z" fill="#ffffff" data-original="#000000" style="" class=""/><path d="m15.1 28.5h-6a1 1 0 0 1 -1-1v-4a1 1 0 0 1 1-1h6a1 1 0 0 1 1 1v4a1 1 0 0 1 -1 1zm-5-2h4v-2h-4z" fill="#ffffff" data-original="#000000" style="" class=""/></g></g></svg>
