<svg xmlns="http://www.w3.org/2000/svg" xmlns:xlink="http://www.w3.org/1999/xlink" version="1.1" xml:space="preserve" class="u-svg-content" viewBox="0 0 160 160" x="0px" y="0px" id="svg-b4f6"><path d="M152.7,0c4,0,7.3,3.4,7.3,7.3s-3.2,7.3-7.2,7.3s-7.3-3.3-7.3-7.3S148.7,0,152.7,0z M145.4,31.5c0,4,3.3,7.3,7.3,7.3
	s7.3-3.3,7.3-7.3s-3.3-7.3-7.3-7.3C148.8,24.2,145.4,27.5,145.4,31.5z M121.2,7.3c0,4,3.3,7.3,7.3,7.3s7.3-3.3,7.3-7.3
	S132.5,0,128.5,0S121.2,3.3,121.2,7.3z M97,7.3c0,3.9,3.2,7.3,7.2,7.3s7.3-3.3,7.3-7.3S108.2,0,104.2,0C100.3,0,97,3.4,97,7.3z
	 M72.7,7.3c0,4,3.3,7.3,7.3,7.3s7.3-3.3,7.3-7.3S84,0,80,0C76,0,72.7,3.3,72.7,7.3z M48.5,7.3c0,4,3.3,7.3,7.3,7.3s7.3-3.3,7.3-7.3
	S59.8,0,55.8,0C51.8,0,48.5,3.3,48.5,7.3z M24.2,7.3c0,4,3.3,7.3,7.3,7.3s7.3-3.3,7.3-7.3S35.5,0,31.5,0C27.5,0,24.2,3.3,24.2,7.3z
	 M0,7.3c0,4,3.3,7.3,7.3,7.3s7.3-3.3,7.3-7.3S11.3,0,7.3,0S0,3.3,0,7.3z M121.2,31.5c0,4,3.3,7.3,7.3,7.3s7.3-3.3,7.3-7.3
	s-3.3-7.3-7.3-7.3S121.2,27.5,121.2,31.5z M96.9,31.5c0,4,3.3,7.3,7.3,7.3s7.3-3.3,7.3-7.3s-3.3-7.3-7.3-7.3
	C100.3,24.2,96.9,27.5,96.9,31.5z M72.7,31.5c0,4,3.3,7.3,7.3,7.3s7.3-3.3,7.3-7.3S84,24.2,80,24.2S72.7,27.5,72.7,31.5z M48.5,31.5
	c0,4,3.3,7.3,7.3,7.3s7.3-3.3,7.3-7.3s-3.3-7.3-7.3-7.3S48.5,27.5,48.5,31.5z M24.2,31.5c0,4,3.3,7.3,7.3,7.3s7.3-3.3,7.3-7.3
	s-3.3-7.3-7.3-7.3S24.2,27.5,24.2,31.5z M145.4,55.7c0,4,3.3,7.3,7.3,7.3s7.3-3.2,7.3-7.2s-3.3-7.3-7.3-7.3
	C148.8,48.5,145.4,51.7,145.4,55.7z M121.2,55.8c0,4,3.3,7.3,7.3,7.3s7.3-3.3,7.3-7.3s-3.3-7.3-7.3-7.3S121.2,51.8,121.2,55.8z
	 M96.9,55.8c0,4,3.3,7.3,7.3,7.3s7.3-3.3,7.3-7.3s-3.3-7.3-7.3-7.3C100.3,48.5,96.9,51.8,96.9,55.8z M72.7,55.7c0,4,3.3,7.3,7.3,7.3
	s7.3-3.2,7.3-7.2S84,48.5,80,48.5S72.7,51.7,72.7,55.7z M48.5,55.8c0,4,3.3,7.3,7.3,7.3s7.3-3.3,7.3-7.3s-3.3-7.3-7.3-7.3
	S48.5,51.8,48.5,55.8z M145.4,80c0,4,3.3,7.3,7.3,7.3S160,84,160,80s-3.3-7.3-7.3-7.3C148.8,72.7,145.4,76,145.4,80z M121.2,80
	c0,4,3.3,7.3,7.3,7.3s7.3-3.3,7.3-7.3s-3.3-7.3-7.3-7.3S121.2,76,121.2,80z M97,80c0,4,3.2,7.3,7.2,7.3s7.3-3.3,7.3-7.3
	s-3.3-7.3-7.3-7.3C100.3,72.7,97,76,97,80z M72.7,80c0,4,3.3,7.3,7.3,7.3s7.3-3.3,7.3-7.3S84,72.7,80,72.7S72.7,76,72.7,80z
	 M145.4,104.3c0,4,3.3,7.3,7.3,7.3s7.3-3.3,7.3-7.3s-3.3-7.3-7.3-7.3C148.8,97,145.5,100.3,145.4,104.3z M121.2,104.3
	c0,4,3.3,7.3,7.3,7.3s7.3-3.3,7.3-7.3s-3.3-7.3-7.3-7.3S121.2,100.3,121.2,104.3z M96.9,104.3c0,4,3.3,7.3,7.3,7.3s7.3-3.3,7.3-7.3
	s-3.3-7.3-7.3-7.3C100.3,97,97,100.3,96.9,104.3z M145.4,128.5c0,4,3.3,7.3,7.3,7.3s7.3-3.3,7.3-7.3s-3.3-7.3-7.3-7.3
	C148.8,121.2,145.5,124.5,145.4,128.5z M121.2,128.5c0,4,3.3,7.3,7.3,7.3s7.3-3.3,7.3-7.3s-3.3-7.3-7.3-7.3S121.2,124.5,121.2,128.5
	z M145.4,152.8c0,4,3.3,7.3,7.3,7.3s7.3-3.3,7.3-7.3s-3.3-7.3-7.3-7.3C148.8,145.5,145.5,148.8,145.4,152.8z"></path></svg>