<?xml version="1.0"?>
<svg xmlns="http://www.w3.org/2000/svg" xmlns:xlink="http://www.w3.org/1999/xlink" xmlns:svgjs="http://svgjs.com/svgjs" version="1.1" width="50" height="50" x="0" y="0" viewBox="0 0 74 74" style="enable-background:new 0 0 512 512" xml:space="preserve" class=""><g><g xmlns="http://www.w3.org/2000/svg" id="Numbers"><text fill="rgb(0,0,0)" font-family="ArialMT, Arial" font-size="18" transform="translate(36.995 -762.544)" svgjs:data="{&quot;leading&quot;:&quot;1.3&quot;}">1<tspan letter-spacing="-.074em" x="-4.337" y="124" svgjs:data="{&quot;leading&quot;:&quot;1.3&quot;}">1</tspan><tspan x="4.337" y="124" svgjs:data="{&quot;leading&quot;:&quot;1.3&quot;}">1</tspan><tspan x="-5.005" y="248" svgjs:data="{&quot;leading&quot;:&quot;1.3&quot;}">21</tspan><tspan x="-5.005" y="372" svgjs:data="{&quot;leading&quot;:&quot;1.3&quot;}">31</tspan><tspan x="-5.005" y="496" svgjs:data="{&quot;leading&quot;:&quot;1.3&quot;}">41</tspan><tspan x="-5.005" y="620" svgjs:data="{&quot;leading&quot;:&quot;1.3&quot;}">51</tspan><tspan x="-5.005" y="744" svgjs:data="{&quot;leading&quot;:&quot;1.3&quot;}">61</tspan><tspan x="-5.005" y="868" svgjs:data="{&quot;leading&quot;:&quot;1.3&quot;}">71</tspan><tspan x="-5.005" y="992" svgjs:data="{&quot;leading&quot;:&quot;1.3&quot;}">81</tspan><tspan x="-5.005" y="1116" svgjs:data="{&quot;leading&quot;:&quot;1.3&quot;}">91</tspan><tspan x="-10.011" y="1240" svgjs:data="{&quot;leading&quot;:&quot;1.3&quot;}">101</tspan><tspan letter-spacing="-.074em" x="-8.675" y="1364" svgjs:data="{&quot;leading&quot;:&quot;1.3&quot;}">11</tspan><tspan x="8.675" y="1364" svgjs:data="{&quot;leading&quot;:&quot;1.3&quot;}">1</tspan><tspan x="-10.011" y="1488" svgjs:data="{&quot;leading&quot;:&quot;1.3&quot;}">121</tspan><tspan x="-10.011" y="1612" svgjs:data="{&quot;leading&quot;:&quot;1.3&quot;}">131</tspan><tspan x="-10.011" y="1736" svgjs:data="{&quot;leading&quot;:&quot;1.3&quot;}">141</tspan><tspan x="-10.011" y="1860" svgjs:data="{&quot;leading&quot;:&quot;1.3&quot;}">151</tspan><tspan x="-10.011" y="1984" svgjs:data="{&quot;leading&quot;:&quot;1.3&quot;}">161</tspan><tspan x="-10.011" y="2108" svgjs:data="{&quot;leading&quot;:&quot;1.3&quot;}">171</tspan><tspan x="-10.011" y="2232" svgjs:data="{&quot;leading&quot;:&quot;1.3&quot;}">181</tspan><tspan x="-10.011" y="2356" svgjs:data="{&quot;leading&quot;:&quot;1.3&quot;}">191</tspan><tspan x="-10.011" y="2480" svgjs:data="{&quot;leading&quot;:&quot;1.3&quot;}">201</tspan><tspan x="-9.343" y="2604" svgjs:data="{&quot;leading&quot;:&quot;1.3&quot;}">2</tspan><tspan letter-spacing="-.074em" x=".668" y="2604" svgjs:data="{&quot;leading&quot;:&quot;1.3&quot;}">1</tspan><tspan x="9.343" y="2604" svgjs:data="{&quot;leading&quot;:&quot;1.3&quot;}">1</tspan><tspan x="-10.011" y="2728" svgjs:data="{&quot;leading&quot;:&quot;1.3&quot;}">221</tspan><tspan x="-10.011" y="2852" svgjs:data="{&quot;leading&quot;:&quot;1.3&quot;}">231</tspan><tspan x="-10.011" y="2976" svgjs:data="{&quot;leading&quot;:&quot;1.3&quot;}">241</tspan><tspan x="-10.011" y="3100" svgjs:data="{&quot;leading&quot;:&quot;1.3&quot;}">251</tspan><tspan x="-10.011" y="3224" svgjs:data="{&quot;leading&quot;:&quot;1.3&quot;}">261</tspan><tspan x="-10.011" y="3348" svgjs:data="{&quot;leading&quot;:&quot;1.3&quot;}">271</tspan><tspan x="-10.011" y="3472" svgjs:data="{&quot;leading&quot;:&quot;1.3&quot;}">281</tspan><tspan x="-10.011" y="3596" svgjs:data="{&quot;leading&quot;:&quot;1.3&quot;}">291</tspan></text></g><g xmlns="http://www.w3.org/2000/svg" id="Icons"><path d="m55 72h-36a5.006 5.006 0 0 1 -5-5v-60a5.006 5.006 0 0 1 5-5h36a5.006 5.006 0 0 1 5 5v60a5.006 5.006 0 0 1 -5 5zm-36-68a3 3 0 0 0 -3 3v60a3 3 0 0 0 3 3h36a3 3 0 0 0 3-3v-60a3 3 0 0 0 -3-3z" fill="#ffffff" data-original="#000000" style="" class=""/><path d="m15 62h44v2h-44z" fill="#ffffff" data-original="#000000" style="" class=""/><path d="m33 66h8v2h-8z" fill="#ffffff" data-original="#000000" style="" class=""/><path d="m15 10h44v2h-44z" fill="#ffffff" data-original="#000000" style="" class=""/><path d="m31 6h12v2h-12z" fill="#ffffff" data-original="#000000" style="" class=""/><path d="m37 52a15 15 0 1 1 15-15 15.017 15.017 0 0 1 -15 15zm0-28a13 13 0 1 0 13 13 13.014 13.014 0 0 0 -13-13z" fill="#ffffff" data-original="#000000" style="" class=""/><path d="m34 45a1 1 0 0 1 -1-1v-14a1 1 0 0 1 1.659-.752l8 7a1 1 0 0 1 0 1.5l-8 7a1 1 0 0 1 -.659.252zm1-12.8v9.6l5.481-4.8z" fill="#ffffff" data-original="#000000" style="" class=""/></g></g></svg>
