<?xml version="1.0"?>
<svg xmlns="http://www.w3.org/2000/svg" xmlns:xlink="http://www.w3.org/1999/xlink" xmlns:svgjs="http://svgjs.com/svgjs" version="1.1" width="50" height="50" x="0" y="0" viewBox="0 0 74 74" style="enable-background:new 0 0 512 512" xml:space="preserve"><g><g xmlns="http://www.w3.org/2000/svg" id="Numbers"><text fill="rgb(0,0,0)" font-family="ArialMT, Arial" font-size="18" transform="translate(36.995 -1010.544)" svgjs:data="{&quot;leading&quot;:&quot;1.3&quot;}">1<tspan letter-spacing="-.074em" x="-4.337" y="124" svgjs:data="{&quot;leading&quot;:&quot;1.3&quot;}">1</tspan><tspan x="4.337" y="124" svgjs:data="{&quot;leading&quot;:&quot;1.3&quot;}">1</tspan><tspan x="-5.005" y="248" svgjs:data="{&quot;leading&quot;:&quot;1.3&quot;}">21</tspan><tspan x="-5.005" y="372" svgjs:data="{&quot;leading&quot;:&quot;1.3&quot;}">31</tspan><tspan x="-5.005" y="496" svgjs:data="{&quot;leading&quot;:&quot;1.3&quot;}">41</tspan><tspan x="-5.005" y="620" svgjs:data="{&quot;leading&quot;:&quot;1.3&quot;}">51</tspan><tspan x="-5.005" y="744" svgjs:data="{&quot;leading&quot;:&quot;1.3&quot;}">61</tspan><tspan x="-5.005" y="868" svgjs:data="{&quot;leading&quot;:&quot;1.3&quot;}">71</tspan><tspan x="-5.005" y="992" svgjs:data="{&quot;leading&quot;:&quot;1.3&quot;}">81</tspan><tspan x="-5.005" y="1116" svgjs:data="{&quot;leading&quot;:&quot;1.3&quot;}">91</tspan><tspan x="-10.011" y="1240" svgjs:data="{&quot;leading&quot;:&quot;1.3&quot;}">101</tspan><tspan letter-spacing="-.074em" x="-8.675" y="1364" svgjs:data="{&quot;leading&quot;:&quot;1.3&quot;}">11</tspan><tspan x="8.675" y="1364" svgjs:data="{&quot;leading&quot;:&quot;1.3&quot;}">1</tspan><tspan x="-10.011" y="1488" svgjs:data="{&quot;leading&quot;:&quot;1.3&quot;}">121</tspan><tspan x="-10.011" y="1612" svgjs:data="{&quot;leading&quot;:&quot;1.3&quot;}">131</tspan><tspan x="-10.011" y="1736" svgjs:data="{&quot;leading&quot;:&quot;1.3&quot;}">141</tspan><tspan x="-10.011" y="1860" svgjs:data="{&quot;leading&quot;:&quot;1.3&quot;}">151</tspan><tspan x="-10.011" y="1984" svgjs:data="{&quot;leading&quot;:&quot;1.3&quot;}">161</tspan><tspan x="-10.011" y="2108" svgjs:data="{&quot;leading&quot;:&quot;1.3&quot;}">171</tspan><tspan x="-10.011" y="2232" svgjs:data="{&quot;leading&quot;:&quot;1.3&quot;}">181</tspan><tspan x="-10.011" y="2356" svgjs:data="{&quot;leading&quot;:&quot;1.3&quot;}">191</tspan><tspan x="-10.011" y="2480" svgjs:data="{&quot;leading&quot;:&quot;1.3&quot;}">201</tspan><tspan x="-9.343" y="2604" svgjs:data="{&quot;leading&quot;:&quot;1.3&quot;}">2</tspan><tspan letter-spacing="-.074em" x=".668" y="2604" svgjs:data="{&quot;leading&quot;:&quot;1.3&quot;}">1</tspan><tspan x="9.343" y="2604" svgjs:data="{&quot;leading&quot;:&quot;1.3&quot;}">1</tspan><tspan x="-10.011" y="2728" svgjs:data="{&quot;leading&quot;:&quot;1.3&quot;}">221</tspan><tspan x="-10.011" y="2852" svgjs:data="{&quot;leading&quot;:&quot;1.3&quot;}">231</tspan><tspan x="-10.011" y="2976" svgjs:data="{&quot;leading&quot;:&quot;1.3&quot;}">241</tspan><tspan x="-10.011" y="3100" svgjs:data="{&quot;leading&quot;:&quot;1.3&quot;}">251</tspan><tspan x="-10.011" y="3224" svgjs:data="{&quot;leading&quot;:&quot;1.3&quot;}">261</tspan><tspan x="-10.011" y="3348" svgjs:data="{&quot;leading&quot;:&quot;1.3&quot;}">271</tspan><tspan x="-10.011" y="3472" svgjs:data="{&quot;leading&quot;:&quot;1.3&quot;}">281</tspan><tspan x="-10.011" y="3596" svgjs:data="{&quot;leading&quot;:&quot;1.3&quot;}">291</tspan></text></g><g xmlns="http://www.w3.org/2000/svg" id="Icons"><path d="m67 55h-60a1 1 0 0 1 -1-1v-36a5.006 5.006 0 0 1 5-5h52a5.006 5.006 0 0 1 5 5v36a1 1 0 0 1 -1 1zm-59-2h58v-35a3 3 0 0 0 -3-3h-52a3 3 0 0 0 -3 3z" fill="#ffffff" data-original="#000000" style=""/><path d="m63 51h-52a1 1 0 0 1 -1-1v-32a1 1 0 0 1 1-1h52a1 1 0 0 1 1 1v32a1 1 0 0 1 -1 1zm-51-2h50v-30h-50z" fill="#ffffff" data-original="#000000" style=""/><path d="m67 61h-60a5.006 5.006 0 0 1 -5-5v-2a1 1 0 0 1 1-1h68a1 1 0 0 1 1 1v2a5.006 5.006 0 0 1 -5 5zm-63-6v1a3 3 0 0 0 3 3h60a3 3 0 0 0 3-3v-1z" fill="#ffffff" data-original="#000000" style=""/><path d="m37 46a12 12 0 1 1 12-12 12.014 12.014 0 0 1 -12 12zm0-22a10 10 0 1 0 10 10 10.011 10.011 0 0 0 -10-10z" fill="#ffffff" data-original="#000000" style=""/><path d="m35 40a1 1 0 0 1 -1-1v-10a1 1 0 0 1 1.64-.768l6 5a1 1 0 0 1 0 1.536l-6 5a1 1 0 0 1 -.64.232zm1-8.865v5.729l3.438-2.864z" fill="#ffffff" data-original="#000000" style=""/></g></g></svg>
